<svg xmlns="http://www.w3.org/2000/svg" width="21.161" height="21.41" viewBox="0 0 21.161 21.41">
  <g id="CartIcon_Group" transform="translate(0 0.756)">
    <path id="Path_5412" data-name="Path 5412" d="M-12864.336-23052.652h3.147a1.212,1.212,0,0,1,1.129.535,24.214,24.214,0,0,1,.451,4.236l.362,6.211s.162,2.2.761,2.637a3.041,3.041,0,0,0,1.723.326h9.088s1.4-.043,1.752-.662a10.494,10.494,0,0,0,.642-2.3l1.2-6.211h-15.525" transform="translate(12864.336 23052.654)" fill="none" stroke="#313640" stroke-width="1.5"/>
    <g id="Ellipse_137" data-name="Ellipse 137" transform="translate(4.336 15.654)" fill="none" stroke="#313640" stroke-width="1.5">
      <circle cx="2.5" cy="2.5" r="2.5" stroke="none"/>
      <circle cx="2.5" cy="2.5" r="1.75" fill="none"/>
    </g>
    <g id="Ellipse_138" data-name="Ellipse 138" transform="translate(14.336 15.654)" fill="none" stroke="#313640" stroke-width="1.5">
      <circle cx="2.5" cy="2.5" r="2.5" stroke="none"/>
      <circle cx="2.5" cy="2.5" r="1.75" fill="none"/>
    </g>
  </g>
</svg>
