<svg xmlns="http://www.w3.org/2000/svg" xmlns:xlink="http://www.w3.org/1999/xlink" width="32.14" height="25.79" viewBox="0 0 32.14 25.79">
  <defs>
    <linearGradient id="linear-gradient" x1="-0.074" y1="0.853" x2="1.089" y2="0.235" gradientUnits="objectBoundingBox">
      <stop offset="0.02" stop-color="#ff8644"/>
      <stop offset="0.335" stop-color="#ff9758"/>
      <stop offset="0.389" stop-color="#ff9d62"/>
      <stop offset="0.667" stop-color="#ffbe91"/>
      <stop offset="0.879" stop-color="#ffd2ae"/>
      <stop offset="1" stop-color="#ffdaba"/>
    </linearGradient>
    <linearGradient id="linear-gradient-2" x1="0.1" y1="1.248" x2="0.858" y2="-0.567" gradientUnits="objectBoundingBox">
      <stop offset="0.183" stop-color="#ff4f04"/>
      <stop offset="0.256" stop-color="#f84d05"/>
      <stop offset="0.36" stop-color="#e54908"/>
      <stop offset="0.484" stop-color="#c6430d"/>
      <stop offset="0.622" stop-color="#9b3b15"/>
      <stop offset="0.77" stop-color="#64301f"/>
      <stop offset="0.88" stop-color="#372727"/>
    </linearGradient>
    <linearGradient id="linear-gradient-3" x1="66.068" y1="0.854" x2="67.227" y2="0.235" xlink:href="#linear-gradient"/>
    <linearGradient id="linear-gradient-4" x1="0.5" y1="0.891" x2="0.5" y2="0.061" gradientUnits="objectBoundingBox">
      <stop offset="0" stop-color="#ffa95c"/>
      <stop offset="0.393" stop-color="#ff7c28"/>
      <stop offset="0.664" stop-color="#ff5b02"/>
      <stop offset="0.983" stop-color="#ff4906"/>
    </linearGradient>
    <linearGradient id="linear-gradient-5" x1="68.359" y1="1.242" x2="69.132" y2="-0.559" xlink:href="#linear-gradient-2"/>
  </defs>
  <g id="foxy_face_winkle" transform="translate(-362 -947)">
    <g id="Group_3120" data-name="Group 3120" transform="translate(362 947)">
      <path id="Path_5685" data-name="Path 5685" d="M504.563,187.465c-1.539,1.923,3.063,7.484,5.26,8.934a16.232,16.232,0,0,0,4.351-14.252A17.33,17.33,0,0,0,504.563,187.465Z" transform="translate(-482.298 -182.074)" fill="url(#linear-gradient)"/>
      <path id="Path_5701" data-name="Path 5701" d="M477.048,186.992a16.292,16.292,0,0,1,9.123-5.5,19.529,19.529,0,0,0-12.307,3.08c-.006.033-.011.065-.016.1C473.8,185.982,475.509,187.6,477.048,186.992Z" transform="translate(-454.295 -181.423)" fill="url(#linear-gradient-2)"/>
      <path id="Path_5686" data-name="Path 5686" d="M286.855,187.421c-2.315-2.789-5.98-4.5-9.615-5.275a16.232,16.232,0,0,0,4.346,14.247C284.8,195.387,288.319,189.652,286.855,187.421Z" transform="translate(-276.976 -182.074)" fill="url(#linear-gradient-3)"/>
      <path id="Path_5691" data-name="Path 5691" d="M316.366,192.294a2.612,2.612,0,0,0-1.711.715,4.988,4.988,0,0,1,1.465-3.343,2.855,2.855,0,0,0-3.3.431,10.785,10.785,0,0,0-4.845-4.528,7.723,7.723,0,0,1,1.286-2.685q-.428.126-.816.265a17.776,17.776,0,0,0-3.5,1.679,11.72,11.72,0,0,1,1.694-2.409,19.21,19.21,0,0,0-10.471,7.678,2.854,2.854,0,0,0-3.3-.431,4.988,4.988,0,0,1,1.465,3.343,2.612,2.612,0,0,0-1.711-.715c2.263,5.217-2.785,10.029-2.929,10.029,1.68,1.419,13.67,4.94,14.7,4.94,1.031-.846,13.236-3.521,14.916-4.94C319.265,202.323,314.061,197.607,316.366,192.294Z" transform="translate(-288.417 -182.319)" fill="url(#linear-gradient-4)"/>
      <path id="Path_5697" data-name="Path 5697" d="M306.451,366.262a21.548,21.548,0,0,1-1.964,1.411,21.549,21.549,0,0,1-1.964-1.411c-3.557-1.664-7.755,2.117-12.844,1.26a24.593,24.593,0,0,0,11.7,5.452,15.617,15.617,0,0,0,3.11.334h0a15.616,15.616,0,0,0,3.11-.334,24.593,24.593,0,0,0,11.7-5.452C314.206,368.379,310.008,364.6,306.451,366.262Z" transform="translate(-288.417 -347.518)" fill="#fff"/>
      <path id="Path_5698" data-name="Path 5698" d="M313.8,375.141a24.6,24.6,0,0,0,5.5-3.513,24.187,24.187,0,0,1-6.9,3.407c-9.47,3.116-13.507.595-14.369-2.128a3.431,3.431,0,0,0-1.17,1.208,4.208,4.208,0,0,1,.87-3.723c-2.413.655-5.08,1.736-8.051,1.236h0a24.593,24.593,0,0,0,11.7,5.452,15.617,15.617,0,0,0,3.11.334h0a15.616,15.616,0,0,0,3.11-.334A24.594,24.594,0,0,0,313.8,375.141Z" transform="translate(-288.417 -351.624)" fill="#372727" opacity="0.07"/>
      <path id="Path_5699" data-name="Path 5699" d="M418.348,355.188c0,.49-2.532,2.1-2.532,2.1s-2.532-1.608-2.532-2.1,1.134-.887,2.532-.887S418.348,354.7,418.348,355.188Z" transform="translate(-399.747 -337.131)" fill="#372727"/>
      <path id="Path_5700" data-name="Path 5700" d="M291.729,184.441a19.526,19.526,0,0,0-12.095-2.946,16.292,16.292,0,0,1,9.157,5.538C291.218,187.47,292.137,185.851,291.729,184.441Z" transform="translate(-279.37 -181.423)" fill="url(#linear-gradient-5)"/>
    </g>
    <g id="Group_1898" data-name="Group 1898" transform="translate(370.808 955.455)">
      <ellipse id="Ellipse_145" data-name="Ellipse 145" cx="1.228" cy="2.072" rx="1.228" ry="2.072" transform="translate(1.33 4.107)" fill="#372727"/>
      <path id="Path_5509" data-name="Path 5509" d="M232.9,218.16a.121.121,0,0,0,.177-.125.926.926,0,0,0-.022-.1,2.842,2.842,0,0,0-4.874-.029,1.277,1.277,0,0,0-.037.144.114.114,0,0,0,.165.122l.006,0a7.023,7.023,0,0,1,4.514-.041C232.849,218.134,232.873,218.146,232.9,218.16Z" transform="translate(-218.083 -210.454)" fill="#372727"/>
      <path id="Path_5510" data-name="Path 5510" d="M242.186,191.445a5.349,5.349,0,0,0-3.712-1.465,5.406,5.406,0,0,0-.725.049.492.492,0,0,0-.353.677.461.461,0,0,0,.545.289,4.391,4.391,0,0,1,1.058-.127,4.6,4.6,0,0,1,2.835.963.234.234,0,0,0,.145.051.231.231,0,0,0,.155-.06l.043-.039a.233.233,0,0,0,.008-.338Z" transform="translate(-226.383 -186.535)" fill="#372727"/>
      <path id="Path_5511" data-name="Path 5511" d="M130.667,155.3a5.418,5.418,0,0,0-.7.184,5.349,5.349,0,0,0-3.053,2.57.233.233,0,0,0,.115.317l.053.023a.233.233,0,0,0,.288-.087,4.6,4.6,0,0,1,2.381-1.814,4.392,4.392,0,0,1,1.043-.216.461.461,0,0,0,.425-.447.492.492,0,0,0-.55-.53Z" transform="translate(-126.887 -155.29)" fill="#372727"/>
      <path id="Path_5512" data-name="Path 5512" d="M169.816,280.636a.156.156,0,0,0-.229.18,3.122,3.122,0,0,0,1.819,1.9,2.976,2.976,0,0,0,2.394,0,3.127,3.127,0,0,0,1.815-1.887.156.156,0,0,0-.234-.177A5.471,5.471,0,0,1,169.816,280.636Z" transform="translate(-165.34 -268.167)" fill="#372727"/>
    </g>
  </g>
</svg>
