<svg id="Group_1862" data-name="Group 1862" xmlns="http://www.w3.org/2000/svg" xmlns:xlink="http://www.w3.org/1999/xlink" width="18" height="18" viewBox="0 0 18 18">
  <defs>
    <clipPath id="clip-path">
      <path id="Path_834" data-name="Path 834" d="M941.534-71.017l-4.464-4.464a7.2,7.2,0,0,0,1.341-4.185,7.258,7.258,0,0,0-7.25-7.25,7.258,7.258,0,0,0-7.25,7.25,7.258,7.258,0,0,0,7.25,7.25,7.206,7.206,0,0,0,4.184-1.339l4.464,4.463a1.24,1.24,0,0,0,1.752.028A1.239,1.239,0,0,0,941.534-71.017Zm-15.812-8.649a5.444,5.444,0,0,1,5.438-5.438,5.444,5.444,0,0,1,5.437,5.438,5.443,5.443,0,0,1-5.437,5.437A5.444,5.444,0,0,1,925.723-79.666Z" transform="translate(-923.911 86.916)" fill="#313640"/>
    </clipPath>
  </defs>
  <g id="Group_589" data-name="Group 589" clip-path="url(#clip-path)">
    <path id="Path_833" data-name="Path 833" d="M918.911-70.912h21v-21h-21Z" transform="translate(-920.413 90.414)" fill="#313640"/>
  </g>
</svg>
